<svg xmlns="http://www.w3.org/2000/svg" viewBox="0 0 440 226" width="440" height="226">
  <defs>
    <linearGradient id="bg" x1="0" y1="0" x2="1" y2="1">
      <stop offset="0" stop-color="#0B0F14"/><stop offset="1" stop-color="#141C25"/>
    </linearGradient>
    <pattern id="dots" width="22" height="22" patternUnits="userSpaceOnUse">
      <circle cx="1.5" cy="1.5" r="1.1" fill="#18222D"/>
    </pattern>
  </defs>
  <rect x="0.5" y="0.5" width="439" height="225" rx="14" fill="url(#bg)" stroke="#1F2A36"/>
  <rect x="0.5" y="0.5" width="439" height="225" rx="14" fill="url(#dots)" opacity="0.7"/>
  <rect x="28" y="30" width="3" height="12" rx="1.5" fill="#3FB950"/>
  <text x="40" y="41" font-family="ui-monospace,SFMono-Regular,Menlo,Consolas,monospace" font-size="11" letter-spacing="1.4" fill="#3FB950">TRADING &amp; QUANT</text>
  <text x="28" y="80" font-family="'Helvetica Neue',Helvetica,Arial,sans-serif" font-size="24" font-weight="700" letter-spacing="-0.5" fill="#F0F6FC">Trading systems</text>
  <g transform="translate(332 32)"><line x1="4" y1="12" x2="4" y2="40" stroke="#2A3947" stroke-width="1.5"/><rect x="0" y="20" width="8" height="14" rx="1.5" fill="#2A3947"/><line x1="19" y1="6" x2="19" y2="32" stroke="#3FB950" stroke-width="1.5"/><rect x="15" y="12" width="8" height="14" rx="1.5" fill="#3FB950"/><line x1="34" y1="10" x2="34" y2="38" stroke="#2A3947" stroke-width="1.5"/><rect x="30" y="16" width="8" height="14" rx="1.5" fill="#2A3947"/><line x1="49" y1="0" x2="49" y2="28" stroke="#3FB950" stroke-width="1.5"/><rect x="45" y="6" width="8" height="16" rx="1.5" fill="#3FB950"/><line x1="64" y1="-6" x2="64" y2="20" stroke="#3FB950" stroke-width="1.5"/><rect x="60" y="0" width="8" height="14" rx="1.5" fill="#3FB950"/></g>
  <text x="28" y="112" font-family="'Helvetica Neue',Helvetica,Arial,sans-serif" font-size="14" fill="#8B98A5">Trading bots in Go and Python on exchange APIs:</text>
  <text x="28" y="133" font-family="'Helvetica Neue',Helvetica,Arial,sans-serif" font-size="14" fill="#8B98A5">market data, indicators and execution, with deep</text>
  <text x="28" y="154" font-family="'Helvetica Neue',Helvetica,Arial,sans-serif" font-size="14" fill="#8B98A5">and reinforcement learning for signal research.</text>
  <rect x="28" y="180" width="27.2" height="22" rx="11" fill="#16202B" stroke="#223040"/><text x="41.6" y="195" text-anchor="middle" font-family="ui-monospace,SFMono-Regular,Menlo,Consolas,monospace" font-size="11" fill="#C9D1D9">Go</text>
  <rect x="61.2" y="180" width="53.6" height="22" rx="11" fill="#16202B" stroke="#223040"/><text x="88.0" y="195" text-anchor="middle" font-family="ui-monospace,SFMono-Regular,Menlo,Consolas,monospace" font-size="11" fill="#C9D1D9">Python</text>
  <rect x="120.8" y="180" width="159.2" height="22" rx="11" fill="#16202B" stroke="#223040"/><text x="200.4" y="195" text-anchor="middle" font-family="ui-monospace,SFMono-Regular,Menlo,Consolas,monospace" font-size="11" fill="#C9D1D9">Reinforcement learning</text>
  <rect x="286.0" y="180" width="47.0" height="22" rx="11" fill="#16202B" stroke="#223040"/><text x="309.5" y="195" text-anchor="middle" font-family="ui-monospace,SFMono-Regular,Menlo,Consolas,monospace" font-size="11" fill="#C9D1D9">Bybit</text>
  <rect x="339.0" y="180" width="60.2" height="22" rx="11" fill="#16202B" stroke="#223040"/><text x="369.1" y="195" text-anchor="middle" font-family="ui-monospace,SFMono-Regular,Menlo,Consolas,monospace" font-size="11" fill="#C9D1D9">Binance</text>
</svg>
