<svg xmlns="http://www.w3.org/2000/svg" viewBox="0 0 440 226" width="440" height="226">
  <defs>
    <linearGradient id="bg" x1="0" y1="0" x2="1" y2="1">
      <stop offset="0" stop-color="#FFFFFF"/><stop offset="1" stop-color="#F6F8FA"/>
    </linearGradient>
    <pattern id="dots" width="22" height="22" patternUnits="userSpaceOnUse">
      <circle cx="1.5" cy="1.5" r="1.1" fill="#E7EBEF"/>
    </pattern>
  </defs>
  <rect x="0.5" y="0.5" width="439" height="225" rx="14" fill="url(#bg)" stroke="#D0D7DE"/>
  <rect x="0.5" y="0.5" width="439" height="225" rx="14" fill="url(#dots)" opacity="0.7"/>
  <rect x="28" y="30" width="3" height="12" rx="1.5" fill="#1A7F37"/>
  <text x="40" y="41" font-family="ui-monospace,SFMono-Regular,Menlo,Consolas,monospace" font-size="11" letter-spacing="1.4" fill="#1A7F37">SCHOOL MANAGEMENT</text>
  <text x="28" y="80" font-family="'Helvetica Neue',Helvetica,Arial,sans-serif" font-size="24" font-weight="700" letter-spacing="-0.5" fill="#1F2328">SchoolHub · ZiSchool</text>
  <g transform="translate(332 26)"><rect x="0" y="0" width="14" height="11" rx="2.5" fill="#C9D1D9"/><rect x="19" y="0" width="14" height="11" rx="2.5" fill="#C9D1D9"/><rect x="38" y="0" width="14" height="11" rx="2.5" fill="#C9D1D9"/><rect x="57" y="0" width="14" height="11" rx="2.5" fill="#C9D1D9"/><rect x="0" y="16" width="14" height="11" rx="2.5" fill="#C9D1D9"/><rect x="19" y="16" width="14" height="11" rx="2.5" fill="#C9D1D9"/><rect x="38" y="16" width="14" height="11" rx="2.5" fill="#1A7F37"/><rect x="57" y="16" width="14" height="11" rx="2.5" fill="#C9D1D9"/><rect x="0" y="32" width="14" height="11" rx="2.5" fill="#C9D1D9"/><rect x="19" y="32" width="14" height="11" rx="2.5" fill="#C9D1D9"/><rect x="38" y="32" width="14" height="11" rx="2.5" fill="#C9D1D9"/><rect x="57" y="32" width="14" height="11" rx="2.5" fill="#C9D1D9"/></g>
  <text x="28" y="112" font-family="'Helvetica Neue',Helvetica,Arial,sans-serif" font-size="14" fill="#57606A">Multi-tenant MIS for primary and secondary</text>
  <text x="28" y="133" font-family="'Helvetica Neue',Helvetica,Arial,sans-serif" font-size="14" fill="#57606A">schools: enrolment, transcripts and reports,</text>
  <text x="28" y="154" font-family="'Helvetica Neue',Helvetica,Arial,sans-serif" font-size="14" fill="#57606A">with each school's data isolated per tenant.</text>
  <rect x="28" y="180" width="60.2" height="22" rx="11" fill="#F0F3F6" stroke="#D8DEE4"/><text x="58.1" y="195" text-anchor="middle" font-family="ui-monospace,SFMono-Regular,Menlo,Consolas,monospace" font-size="11" fill="#24292F">Fastify</text>
  <rect x="94.19999999999999" y="180" width="53.6" height="22" rx="11" fill="#F0F3F6" stroke="#D8DEE4"/><text x="121.0" y="195" text-anchor="middle" font-family="ui-monospace,SFMono-Regular,Menlo,Consolas,monospace" font-size="11" fill="#24292F">Prisma</text>
  <rect x="153.79999999999998" y="180" width="80.0" height="22" rx="11" fill="#F0F3F6" stroke="#D8DEE4"/><text x="193.8" y="195" text-anchor="middle" font-family="ui-monospace,SFMono-Regular,Menlo,Consolas,monospace" font-size="11" fill="#24292F">PostgreSQL</text>
  <rect x="239.79999999999998" y="180" width="47.0" height="22" rx="11" fill="#F0F3F6" stroke="#D8DEE4"/><text x="263.3" y="195" text-anchor="middle" font-family="ui-monospace,SFMono-Regular,Menlo,Consolas,monospace" font-size="11" fill="#24292F">Vue 3</text>
  <rect x="292.79999999999995" y="180" width="60.2" height="22" rx="11" fill="#F0F3F6" stroke="#D8DEE4"/><text x="322.9" y="195" text-anchor="middle" font-family="ui-monospace,SFMono-Regular,Menlo,Consolas,monospace" font-size="11" fill="#24292F">Next.js</text>
</svg>
